<svg width="512" height="512" viewBox="0 0 512 512" fill="none" xmlns="http://www.w3.org/2000/svg">
<path d="M375.614 136.415C396.129 156.971 396.129 190.294 375.614 210.86L322.033 264.386L326.991 269.396C333.583 275.988 333.583 286.64 326.991 293.232C320.398 299.824 309.746 299.824 303.153 293.232L218.774 208.857C212.182 202.265 212.182 191.612 218.774 185.02C225.366 178.429 236.019 178.429 242.611 185.02L247.621 189.977L301.149 136.415C321.717 115.862 355.047 115.862 375.614 136.415ZM150.232 291.492L213.87 227.841L237.76 251.73L174.106 315.381C172.519 316.963 171.627 319.072 171.627 321.34V340.377H190.665C192.933 340.377 195.043 339.481 196.625 337.899L260.278 274.248L284.168 298.137L220.515 361.788C212.604 369.698 201.846 374.128 190.665 374.128H168.3L147.237 388.155C140.544 392.637 131.632 391.741 125.943 386.046C120.255 380.35 119.372 371.438 123.835 364.741L137.876 343.7V321.34C137.876 310.16 142.321 299.402 150.232 291.492Z" fill="black"/>
</svg>
