<svg width="448" height="512" viewBox="0 0 448 512" fill="none" xmlns="http://www.w3.org/2000/svg">
<g id="trash-solid">
<g id="bottom">
<path id="Vector" d="M394.8 466.1C393.2 492.3 372.3 512 346.9 512H101.1C75.75 512 54.77 492.3 53.19 466.1L31.1 128H416L394.8 466.1Z" fill="black"/>
</g>
<g id="top">
<path id="Vector_2" d="M163.8 0C151.7 0 140.6 6.848 135.2 17.69L128 32H32C14.33 32 0 46.33 0 64C0 81.67 14.33 96 32 96H416C433.7 96 448 81.67 448 64C448 46.33 433.7 32 416 32H320L312.8 17.69C307.4 6.848 296.3 0 284.2 0H163.8Z" fill="black"/>
</g>
</g>
</svg>
