<svg width="448" height="512" viewBox="0 0 448 512" fill="none" xmlns="http://www.w3.org/2000/svg">
<g id="trash-solid 2">
<g id="main">
<g id="bottom">
<path id="Vector" d="M316.072 369.257C315.21 383.38 303.943 394 290.251 394H157.749C144.084 394 132.775 383.38 131.923 369.257L120.015 187H327.5L316.072 369.257Z" fill="black"/>
</g>
<g id="top">
<path id="Vector_2" d="M191.549 118C185.026 118 179.042 121.692 176.131 127.536L172.25 135.25H120.5C110.974 135.25 103.25 142.974 103.25 152.5C103.25 162.026 110.974 169.75 120.5 169.75H327.5C337.041 169.75 344.75 162.026 344.75 152.5C344.75 142.974 337.041 135.25 327.5 135.25H275.75L271.869 127.536C268.958 121.692 262.974 118 256.451 118H191.549Z" fill="black"/>
</g>
</g>
</g>
</svg>
